<?xml version="1.0" encoding="utf-8"?>
<!-- Generator: Adobe Illustrator 16.0.0, SVG Export Plug-In . SVG Version: 6.00 Build 0)  -->
<!DOCTYPE svg PUBLIC "-//W3C//DTD SVG 1.1//EN" "http://www.w3.org/Graphics/SVG/1.1/DTD/svg11.dtd">
<svg version="1.1" id="Слой_1" xmlns="http://www.w3.org/2000/svg" xmlns:xlink="http://www.w3.org/1999/xlink" x="0px" y="0px"
	 width="38.354px" height="36.674px" viewBox="0 0 38.354 36.674" enable-background="new 0 0 38.354 36.674" xml:space="preserve">
<path fill="#C2C2C2" d="M21.028,1.151l4.324,8.766c0.301,0.609,0.883,1.031,1.559,1.129l9.672,1.406
	c1.695,0.246,2.371,2.328,1.145,3.519l-7,6.825c-0.484,0.472-0.707,1.156-0.594,1.828l1.652,9.633
	c0.289,1.687-1.48,2.972-2.996,2.175l-8.652-4.547c-0.602-0.316-1.321-0.316-1.922,0l-8.653,4.547
	c-1.515,0.797-3.285-0.488-2.996-2.175l1.653-9.633c0.113-0.672-0.106-1.356-0.594-1.828l-7-6.825
	c-1.227-1.195-0.547-3.277,1.145-3.519l9.675-1.406c0.672-0.098,1.254-0.52,1.555-1.129l4.324-8.766
	C18.083-0.384,20.271-0.384,21.028,1.151"/>
</svg>
